# xmcd CD database file
#
# Track frame offsets:
#	150
#	13809
#	26563
#	39578
#	54112
#	66420
#	79689
#	92921
#	106472
#	119309
#	132231
#	145273
#	158028
#	170685
#	183845
#	198611
#	214184
#	226717
#
# Disc length: 3217 seconds
#
# Revision: 0
# Processed by: cddbd v1.5.2PL0 Copyright (c) Steve Scherf et al.
# Submitted via: CDex 1.51
#
DISCID=f60c8f12
DTITLE=Casey Bill Weldon - The Blues: Slide Guitar Swing 1927-1934 [, Cd 2
DYEAR=2002
DGENRE=Blues
TTITLE0=Oh! Red 
TTITLE1=You Waited Too Long 
TTITLE2=Round and Round 
TTITLE3=I'll Get a Break Someday 
TTITLE4=No Good Woman 
TTITLE5=Guitar Swing 
TTITLE6=Walkin' in My Sleep 
TTITLE7=Sales Lady 
TTITLE8=Lady Doctor Blues 
TTITLE9=Casey Bill's New W.P.A. 
TTITLE10=You Shouldn't Do That 
TTITLE11=Rooster Blues 
TTITLE12=Go Ahead Buddy 
TTITLE13=Red Hot Blues 
TTITLE14=I Believe You're Cheatin' on Me 
TTITLE15=Way Down in Louisiana 
TTITLE16=You Gotta Do Your Duty 
TTITLE17=Midnight Blues 
EXTD=YEAR: 2002
EXTT0=
EXTT1=
EXTT2=
EXTT3=
EXTT4=
EXTT5=
EXTT6=
EXTT7=
EXTT8=
EXTT9=
EXTT10=
EXTT11=
EXTT12=
EXTT13=
EXTT14=
EXTT15=
EXTT16=
EXTT17=
PLAYORDER=
